# xmcd
#
# Track frame offsets:
#	150
#	15958
#	32719
#	46764
#	69003
#	84124
#	95970
#	112411
#	129703
#	145659
#	165895
#	182140
#	204067
#
# Disc length: 2867 seconds
#
# Revision: 3
# Processed by: cddbd v1.5.1PL0 Copyright (c) Steve Scherf et al.
# Submitted via: EasyCDDAExtractor 8.2.1.1
#
DISCID=9c0b310d
DTITLE=иыаммидгс акйимоос - ои пеяипетеиес емос пяосйумгтг
DYEAR=2003
DGENRE=емтевмо
TTITLE0=о пяосйумгтгс
TTITLE1=апоцеула сто демтяо
TTITLE2=то адеио паяахуяо
TTITLE3=оти дем еимаи пиа еды
TTITLE4=циати дем еявесаи поте
TTITLE5=дем еимаи жыс
TTITLE6=ека ма фгсоуле нама
TTITLE7=леса стом идио оуяамо
TTITLE8=о йослос аккафеи
TTITLE9=лийяг птгтийг хеокоциа
TTITLE10=та бяадуа поу невмас
TTITLE11=о жкецолемос подгкатгс
TTITLE12=цуяислос
EXTD=YEAR: 2003
EXTT0=
EXTT1=
EXTT2=
EXTT3=
EXTT4=
EXTT5=
EXTT6=
EXTT7=
EXTT8=
EXTT9=
EXTT10=
EXTT11=
EXTT12=
PLAYORDER=
